<svg aria-hidden="true" style="width:0;height:0;position:absolute;overflow:hidden" xmlns="http://www.w3.org/2000/svg"><defs><symbol id="icon-chat" viewBox="0 0 47 32"><path fill="#674d40" style="fill:var(--color1,#674d40)" d="M35.983 14.139C35.983 5.598 26.98 0 17.991 0 8.967 0-.001 5.625-.001 14.139c0 3.221 1.411 6.371 3.973 8.87.098.096.136.241.098.379-.805 2.948-2.711 5.611-3.493 6.619a1.009 1.009 0 0 0-.104 1.082c.175.346.521.559.907.559h.026c3.827-.096 8.262-1.176 11.004-3.871a.392.392 0 0 1 .368-.099c1.685.399 3.438.602 5.212.602 9.022 0 17.992-5.623 17.992-14.14zM13.096 26.344a1.753 1.753 0 0 0-1.645.456c-2.742 2.696-7.219 3.309-9.339 3.445.968-1.336 2.542-3.791 3.28-6.495a1.756 1.756 0 0 0-.463-1.72c-2.328-2.271-3.559-4.999-3.559-7.889C1.37 7.1 8.826 1.372 17.992 1.372S34.614 7.1 34.614 14.141 27.158 26.91 17.992 26.91c-1.668 0-3.315-.19-4.896-.565z"/><path fill="#674d40" style="fill:var(--color1,#674d40)" d="M40.39 25.522c3.995-2.019 6.379-5.459 6.379-9.204 0-5.292-4.784-9.813-11.374-10.752a.686.686 0 0 0-.193 1.357c5.909.841 10.197 4.792 10.197 9.395 0 3.216-2.103 6.2-5.627 7.981a1.695 1.695 0 0 0-.893 1.862c.334 1.57 1.045 3.023 1.614 4.009-4.046-.673-5.579-2.615-6.064-3.455a1.689 1.689 0 0 0-1.463-.84h-.055c-.76 0-1.52-.053-2.261-.157a.686.686 0 0 0-.191 1.357c.803.113 1.628.17 2.451.17h.057c.115 0 .22.059.275.155 1.855 3.215 6.121 4.037 7.869 4.24.386.045.754-.131.96-.461s.203-.736-.007-1.063c-.527-.82-1.466-2.461-1.844-4.24a.321.321 0 0 1 .17-.353zM7.331 11.689c-1.309 0-2.374 1.065-2.374 2.374s1.065 2.374 2.374 2.374c1.309 0 2.374-1.065 2.374-2.374s-1.065-2.374-2.374-2.374zm0 3.378a1.005 1.005 0 1 1 .001-2.01 1.005 1.005 0 0 1-.001 2.01zm6.774-3.378c-1.309 0-2.374 1.065-2.374 2.374s1.065 2.374 2.374 2.374c1.309 0 2.374-1.065 2.374-2.374s-1.065-2.374-2.374-2.374zm0 3.378a1.005 1.005 0 1 1 .001-2.01 1.005 1.005 0 0 1-.001 2.01zm6.773-3.378c-1.309 0-2.374 1.065-2.374 2.374s1.065 2.374 2.374 2.374c1.309 0 2.374-1.065 2.374-2.374s-1.065-2.374-2.374-2.374zm0 3.378a1.005 1.005 0 1 1 .001-2.01 1.005 1.005 0 0 1-.001 2.01zm6.774-3.378c-1.309 0-2.374 1.065-2.374 2.374s1.065 2.374 2.374 2.374c1.309 0 2.374-1.065 2.374-2.374s-1.065-2.374-2.374-2.374zm0 3.378a1.005 1.005 0 1 1 .001-2.01 1.005 1.005 0 0 1-.001 2.01z"/></symbol><symbol id="icon-chef-hat" viewBox="0 0 34 32"><path fill="#674d40" style="fill:var(--color1,#674d40)" d="M24.436 8.388a.483.483 0 0 1-.482-.482 7.067 7.067 0 0 0-14.128 0 .483.483 0 0 1-.964 0 8.03 8.03 0 0 1 16.058 0 .483.483 0 0 1-.482.482z"/><path fill="#674d40" style="fill:var(--color1,#674d40)" d="M25.844 19.308a.48.48 0 0 1-.346-.821.478.478 0 0 1 .34-.143 7.015 7.015 0 0 0 6.974-6.924 7.008 7.008 0 0 0-7.059-6.939 7.164 7.164 0 0 0-2.102.312.486.486 0 0 1-.596-.322.485.485 0 0 1 .313-.6 8.134 8.134 0 0 1 2.385-.354 7.972 7.972 0 0 1 8.025 7.904 7.981 7.981 0 0 1-7.927 7.89h-.006zm-17.911 0h-.006c-2.091-.015-4.093-.85-5.576-2.325S.024 13.51 0 11.418a7.974 7.974 0 0 1 8.025-7.904 8.134 8.134 0 0 1 2.385.354.483.483 0 1 1-.283.922 7.164 7.164 0 0 0-2.102-.312 7.004 7.004 0 0 0-7.059 6.939 7.016 7.016 0 0 0 6.974 6.924c.063 0 .126.013.184.038a.502.502 0 0 1 .26.263.488.488 0 0 1-.002.37.475.475 0 0 1-.263.26.491.491 0 0 1-.185.036z"/><path fill="#674d40" style="fill:var(--color1,#674d40)" d="M25.845 31.312H7.933a.483.483 0 0 1-.482-.482V18.826a.483.483 0 0 1 .964 0v11.521h16.947V18.826a.483.483 0 0 1 .964 0V30.83a.483.483 0 0 1-.482.482z"/><path fill="#674d40" style="fill:var(--color1,#674d40)" d="M29.203 26.636H11.291a.483.483 0 0 1 0-.964h17.912a.483.483 0 0 1 0 .964z"/></symbol><symbol id="icon-clock" viewBox="0 0 32 32"><path fill="#674d40" style="fill:var(--color1,#674d40)" d="M16 0C7.178 0 0 7.178 0 16s7.178 16 16 16 16-7.178 16-16S24.822 0 16 0zm0 30.933C7.766 30.933 1.067 24.234 1.067 16S7.766 1.067 16 1.067 30.933 7.766 30.933 16 24.234 30.933 16 30.933z"/><path fill="#674d40" style="fill:var(--color1,#674d40)" d="M16.534 13.878V8.469a.533.533 0 1 0-1.066 0v5.409a2.13 2.13 0 0 0-1.524 1.524h-3.809a.533.533 0 1 0 0 1.066h3.809a2.132 2.132 0 0 0 2.058 1.6 2.135 2.135 0 0 0 2.133-2.133c0-.991-.683-1.819-1.6-2.058zM16 17.002a1.068 1.068 0 0 1 0-2.134 1.068 1.068 0 0 1 0 2.134zm0-11.733a.533.533 0 0 0 .533-.533v-.533a.533.533 0 1 0-1.066 0v.533c0 .295.239.533.533.533zm0 21.333a.533.533 0 0 0-.533.533v.533a.533.533 0 1 0 1.066 0v-.533a.533.533 0 0 0-.533-.533zm11.734-11.2h-.533a.533.533 0 1 0 0 1.066h.533a.533.533 0 1 0 0-1.066zm-22.934 0h-.533a.533.533 0 1 0 0 1.066H4.8a.533.533 0 1 0 0-1.066zm19.119-8.141-.377.377a.532.532 0 0 0 .377.91.532.532 0 0 0 .377-.156l.377-.377a.534.534 0 0 0-.754-.754zM7.704 23.478l-.377.377a.532.532 0 0 0 .377.91.532.532 0 0 0 .377-.156l.377-.377a.534.534 0 0 0-.754-.754zm16.592 0a.533.533 0 1 0-.754.754l.377.377a.532.532 0 1 0 .754-.754l-.377-.377zM8.081 7.261a.533.533 0 1 0-.754.754l.377.377a.532.532 0 1 0 .754-.754l-.377-.377z"/></symbol><symbol id="icon-close" viewBox="0 0 32 32"><path d="M30.355 32a1.646 1.646 0 0 0 1.163-2.811L2.811.482A1.646 1.646 0 1 0 .483 2.811L29.19 31.517a1.65 1.65 0 0 0 1.165.483z"/><path d="M1.645 32c.422 0 .843-.16 1.163-.483L31.517 2.811A1.647 1.647 0 0 0 29.188.482L.481 29.189A1.646 1.646 0 0 0 1.644 32z"/></symbol><symbol id="icon-menu" viewBox="0 0 60 32"><path d="M2 0h56a2 2 0 1 1 0 4H2a2 2 0 1 1 0-4zm0 14h56a2 2 0 1 1 0 4H2a2 2 0 1 1 0-4zm0 14h56a2 2 0 1 1 0 4H2a2 2 0 1 1 0-4z"/></symbol><symbol id="icon-people" viewBox="0 0 34 32"><path fill="#674d40" style="fill:var(--color1,#674d40)" d="M11.544 0C7.96 0 5.041 2.919 5.041 6.503s2.919 6.503 6.503 6.503 6.503-2.919 6.503-6.503S15.128 0 11.544 0zm0 11.915c-2.992 0-5.419-2.434-5.419-5.419s2.434-5.419 5.419-5.419c2.992 0 5.419 2.434 5.419 5.419s-2.434 5.419-5.419 5.419zM24.861 2.7c-2.693 0-4.88 2.188-4.88 4.88s2.188 4.88 4.88 4.88c2.693 0 4.88-2.188 4.88-4.88s-2.188-4.88-4.88-4.88zm0 8.683c-2.094 0-3.797-1.702-3.797-3.797s1.702-3.797 3.797-3.797c2.094 0 3.797 1.702 3.797 3.797s-1.702 3.797-3.797 3.797z"/><path fill="#674d40" style="fill:var(--color1,#674d40)" d="M33.592 19.615c-.492-2.965-2.334-5.466-5.472-6.775 0 0-1.39 1.051-3.258 1.017-2.041-.04-3.258-1.017-3.258-1.017s-1.516.565-2.739 1.742c-1.13-1.004-3.039-1.822-3.039-1.822s-1.749 1.33-4.289 1.31c-2.666-.02-4.275-1.31-4.275-1.31S1.497 14.741.28 21.464c0 0-1.303 3.564 1.715 8.89h19.103s1.356-2.361 1.596-3.797h9.502c2.334-3.537 1.396-6.942 1.396-6.942zm-13.165 9.654H2.667C.346 24.861 1.35 21.642 1.35 21.642a10.301 10.301 0 0 1 5.831-7.66c2.66 1.563 6.071 1.563 8.73 0a10.301 10.301 0 0 1 5.831 7.66c-.007 0 .957 3.963-1.317 7.627zm11.137-3.796h-8.651c.332-1.915-.106-4.009-.106-4.009a11.356 11.356 0 0 0-3.145-6.15 7.8 7.8 0 0 1 1.855-1.25 6.799 6.799 0 0 0 6.682 0 7.75 7.75 0 0 1 4.322 5.732s.791 2.686-.957 5.678z"/></symbol><symbol id="icon-Star-full" viewBox="0 0 34 32"><path fill="#ab816c" style="fill:var(--color2,#ab816c)" d="M15.24 1.561c.504-1.552 2.699-1.552 3.204 0l2.558 7.872a1.684 1.684 0 0 0 1.602 1.164h8.277c1.632 0 2.31 2.088.99 3.047l-6.696 4.865a1.685 1.685 0 0 0-.612 1.883l2.558 7.872c.504 1.552-1.272 2.842-2.592 1.883l-6.696-4.865a1.684 1.684 0 0 0-1.98 0l-6.696 4.865c-1.32.959-3.096-.331-2.592-1.883l2.558-7.872a1.685 1.685 0 0 0-.612-1.883l-6.696-4.865c-1.32-.959-.642-3.047.99-3.047h8.277c.73 0 1.376-.47 1.602-1.164l2.558-7.872z"/></symbol><symbol id="icon-Star-empty" viewBox="0 0 34 32"><path fill="none" stroke="#ab816c" style="stroke:var(--color2,#ab816c)" stroke-width="1.684" d="M16.041 1.822c.252-.776 1.35-.776 1.602 0l2.558 7.872a2.526 2.526 0 0 0 2.403 1.746h8.277c.816 0 1.155 1.044.495 1.523l-6.696 4.865a2.528 2.528 0 0 0-.918 2.825l2.558 7.872c.252.776-.636 1.421-1.296.941l-6.696-4.865a2.528 2.528 0 0 0-2.97 0l-6.696 4.865c-.66.48-1.548-.166-1.296-.941l2.558-7.872a2.527 2.527 0 0 0-.918-2.825L2.31 12.963c-.66-.479-.321-1.523.495-1.523h8.277a2.528 2.528 0 0 0 2.403-1.746l2.558-7.872z"/></symbol><symbol id="icon-phone" viewBox="0 0 32 32"><path d="M29.43 20.474c-1.959 0-3.882-.299-5.705-.886-.893-.297-1.991-.025-2.536.521l-3.598 2.648c-4.172-2.171-6.743-4.676-8.939-8.713l2.636-3.416a2.475 2.475 0 0 0 .636-2.554 17.325 17.325 0 0 1-.912-5.571C11.012 1.123 9.86 0 8.445 0H2.569C1.153 0 .001 1.123.001 2.503c0 15.819 13.202 28.689 29.43 28.689 1.416 0 2.568-1.123 2.568-2.503v-5.712c0-1.38-1.152-2.503-2.568-2.503z"/></symbol><symbol id="icon-location" viewBox="0 0 23 32"><path d="M11.733 0c6.47 0 11.733 5.131 11.733 11.438a11.15 11.15 0 0 1-2.341 6.857l-8.669 11.382c-.022.028-.055.038-.079.063a.887.887 0 0 1-1.367-.063c-2.496-3.247-7.072-9.312-8.832-11.599l-.001-.003-.011-.014a11.162 11.162 0 0 1-2.167-6.623C-.001 5.131 5.263 0 11.732 0zm0 17.609c3.483 0 6.33-2.775 6.33-6.171s-2.847-6.171-6.33-6.171-6.33 2.775-6.33 6.171 2.847 6.171 6.33 6.171z"/></symbol><symbol id="icon-twitter" viewBox="0 0 34 32"><path d="M34.133 3.67a13.41 13.41 0 0 1-4.032 1.235c1.451-.968 2.558-2.49 3.078-4.324a13.135 13.135 0 0 1-4.437 1.893C27.458.945 25.627-.001 23.631-.001c-3.874 0-6.993 3.515-6.993 7.824 0 .62.047 1.216.162 1.784C10.982 9.29 5.835 6.173 2.377 1.425a8.592 8.592 0 0 0-.958 3.954c0 2.709 1.248 5.111 3.108 6.501-1.124-.024-2.227-.389-3.162-.963v.086c0 3.801 2.426 6.959 5.606 7.686-.57.174-1.19.258-1.835.258-.448 0-.9-.029-1.325-.134.907 3.098 3.479 5.375 6.539 5.449-2.381 2.082-5.404 3.336-8.676 3.336-.574 0-1.124-.029-1.675-.107 3.1 2.235 6.773 3.51 10.735 3.51 12.877 0 19.917-11.924 19.917-22.259 0-.346-.011-.68-.026-1.011 1.389-1.102 2.556-2.478 3.507-4.061z"/></symbol><symbol id="icon-facebook" viewBox="0 0 16 32"><path d="M14.512.007 10.895 0c-4.064 0-6.69 3.091-6.69 7.875v3.631H.568c-.314 0-.569.292-.569.653v5.261c0 .361.255.652.569.652h3.637v13.275c0 .36.254.652.569.652h4.745c.314 0 .569-.292.569-.652V18.072h4.252c.314 0 .569-.292.569-.652l.002-5.261c0-.173-.06-.339-.167-.461s-.252-.191-.402-.191h-4.254V8.429c0-1.479.307-2.23 1.987-2.23l2.437-.001c.314 0 .568-.292.568-.652V.661c0-.36-.254-.652-.568-.652z"/></symbol><symbol id="icon-instagram" viewBox="0 0 32 32"><path d="M16.316 32h-.319c-2.508.006-4.826-.058-7.08-.195-2.066-.126-3.953-.84-5.455-2.065-1.45-1.182-2.44-2.781-2.942-4.75-.438-1.715-.461-3.398-.483-5.026a343.853 343.853 0 0 1-.036-3.96c.003-1.414.02-2.798.036-3.966.022-1.628.045-3.311.483-5.026.503-1.97 1.493-3.568 2.942-4.75C4.965 1.037 6.851.323 8.918.197 11.172.06 13.49-.004 16.004.002c2.509-.005 4.826.058 7.08.195 2.066.126 3.953.84 5.455 2.065 1.45 1.182 2.44 2.781 2.943 4.75.437 1.715.461 3.398.483 5.026.016 1.168.033 2.553.036 3.96v.006c-.003 1.408-.02 2.792-.036 3.96-.022 1.628-.045 3.311-.483 5.026-.503 1.97-1.493 3.568-2.943 4.75-1.502 1.225-3.389 1.939-5.455 2.065-2.159.131-4.376.195-6.768.195zm-.319-2.5c2.468.006 4.733-.056 6.934-.19 1.563-.095 2.917-.602 4.027-1.507 1.026-.837 1.732-1.991 2.1-3.431.364-1.428.385-2.96.406-4.442.016-1.16.032-2.535.036-3.929-.004-1.394-.02-2.769-.036-3.929-.02-1.482-.041-3.015-.406-4.443-.367-1.44-1.074-2.594-2.1-3.431-1.11-.905-2.465-1.412-4.027-1.507a108.807 108.807 0 0 0-6.928-.19c-2.467-.006-4.733.056-6.934.19-1.563.095-2.917.602-4.027 1.507-1.026.837-1.732 1.991-2.1 3.431-.364 1.428-.385 2.96-.406 4.443a363.726 363.726 0 0 0-.036 3.932c.003 1.389.02 2.765.036 3.926.02 1.482.041 3.015.406 4.442.367 1.44 1.074 2.594 2.1 3.431 1.11.905 2.465 1.412 4.027 1.507 2.201.134 4.467.197 6.928.191zm-.06-5.688c-4.308 0-7.813-3.505-7.813-7.812s3.505-7.813 7.813-7.813S23.75 11.692 23.75 16s-3.505 7.812-7.813 7.812zm0-13.125c-2.929 0-5.313 2.383-5.313 5.313s2.383 5.312 5.313 5.312c2.93 0 5.313-2.383 5.313-5.312s-2.383-5.313-5.313-5.313zm8.688-5a1.875 1.875 0 1 0 0 3.75 1.875 1.875 0 0 0 0-3.75z"/></symbol><symbol id="icon-happy" viewBox="0 0 32 32"><path d="M16 0C7.163 0 0 7.163 0 16s7.163 16 16 16 16-7.163 16-16S24.837 0 16 0zm6 8c1.105 0 2 1.343 2 3s-.895 3-2 3-2-1.343-2-3 .895-3 2-3zM10 8c1.105 0 2 1.343 2 3s-.895 3-2 3-2-1.343-2-3 .895-3 2-3zm6 20c-5.215 0-9.544-4.371-10-9.947 2.93 1.691 6.377 2.658 10 2.658s7.07-.963 10-2.654c-.455 5.576-4.785 9.942-10 9.942z"/></symbol><symbol id="icon-angry" viewBox="0 0 32 32"><path d="M16 0C7.163 0 0 7.163 0 16s7.163 16 16 16 16-7.163 16-16S24.837 0 16 0zm2.003 11.891c.064-1.483 1.413-2.467 2.55-3.036 1.086-.543 2.16-.814 2.205-.826a1 1 0 1 1 .485 1.941 9.195 9.195 0 0 0-1.779.667 2 2 0 1 1-3.46 1.254zM8.03 8.758a1 1 0 0 1 1.213-.728c.045.011 1.119.283 2.205.826 1.137.569 2.486 1.553 2.55 3.036a2 2 0 1 1-3.46-1.254 9.195 9.195 0 0 0-1.779-.667 1.001 1.001 0 0 1-.728-1.213zm13.973 15.64C20.779 22.362 18.549 21 16 21s-4.779 1.362-6.003 3.398l-2.573-1.544c1.749-2.908 4.935-4.855 8.576-4.855s6.827 1.946 8.576 4.855l-2.573 1.544z"/></symbol><symbol id="icon-arrow-up" viewBox="0 0 32 32"><path d="M16 1 1 16h9v16h12V16h9z"/></symbol></defs></svg>