<?xml version="1.0" encoding="utf-8" ?>
<!-- Generated by IcoMoon.io -->
<svg
  version="1.1"
  xmlns="http://www.w3.org/2000/svg"
  xmlns:xlink="http://www.w3.org/1999/xlink"
  width="752"
  height="32"
  viewBox="0 0 752 32"
>
<svg id="Star-empty" width="34" height="32" viewBox="0 0 34 32" x="0" y="0">
<path
      fill="none"
      stroke="#ab816c"
      stroke-linejoin="miter"
      stroke-linecap="butt"
      stroke-miterlimit="4"
      stroke-width="1.6842"
      d="M16.041 1.822c0.252-0.776 1.35-0.776 1.602 0l2.558 7.872c0.338 1.041 1.308 1.746 2.403 1.746h8.277c0.816 0 1.155 1.044 0.495 1.523l-6.696 4.865c-0.885 0.643-1.256 1.784-0.918 2.825l2.558 7.872c0.252 0.776-0.636 1.421-1.296 0.941l-6.696-4.865c-0.886-0.643-2.084-0.643-2.97 0l-6.696 4.865c-0.66 0.48-1.548-0.166-1.296-0.941l2.558-7.872c0.338-1.041-0.032-2.181-0.918-2.825l-6.696-4.865c-0.66-0.479-0.321-1.523 0.495-1.523h8.277c1.094 0 2.064-0.705 2.403-1.746l2.558-7.872z"
    />
</svg>

<svg id="gps" width="23" height="32" viewBox="0 0 23 32" x="48" y="0">
<path
      d="M11.733 0c6.47 0 11.733 5.131 11.733 11.438 0 2.496-0.809 4.867-2.341 6.857l-8.669 11.382c-0.022 0.028-0.055 0.038-0.079 0.063-0.433 0.452-1.058 0.339-1.367-0.063-2.496-3.247-7.072-9.312-8.832-11.599 0 0-0.001-0.002-0.001-0.003l-0.011-0.014c-1.418-1.942-2.167-4.232-2.167-6.623 0-6.307 5.264-11.438 11.733-11.438zM11.733 17.609c3.483 0 6.33-2.775 6.33-6.171s-2.847-6.171-6.33-6.171c-3.483 0-6.33 2.775-6.33 6.171s2.847 6.171 6.33 6.171z"
    />
</svg>
<svg id="phone" width="32" height="32" viewBox="0 0 32 32" x="96" y="0">
<path
      d="M29.43 20.474c-1.959 0-3.882-0.299-5.705-0.886-0.893-0.297-1.991-0.025-2.536 0.521l-3.598 2.648c-4.172-2.171-6.743-4.676-8.939-8.713l2.636-3.416c0.685-0.667 0.931-1.641 0.636-2.554-0.605-1.786-0.912-3.66-0.912-5.571 0-1.38-1.152-2.503-2.567-2.503h-5.876c-1.416 0-2.568 1.123-2.568 2.503 0 15.819 13.202 28.689 29.43 28.689 1.416 0 2.568-1.123 2.568-2.503v-5.712c0-1.38-1.152-2.503-2.568-2.503z"
    />
</svg>
<svg id="Star-full" width="34" height="32" viewBox="0 0 34 32" x="144" y="0">
<path
      fill="#ab816c"
      d="M15.24 1.561c0.504-1.552 2.699-1.552 3.204 0l2.558 7.872c0.225 0.694 0.872 1.164 1.602 1.164h8.277c1.632 0 2.31 2.088 0.99 3.047l-6.696 4.865c-0.59 0.429-0.837 1.189-0.612 1.883l2.558 7.872c0.504 1.552-1.272 2.842-2.592 1.883l-6.696-4.865c-0.59-0.429-1.39-0.429-1.98 0l-6.696 4.865c-1.32 0.959-3.096-0.331-2.592-1.883l2.558-7.872c0.225-0.694-0.022-1.454-0.612-1.883l-6.696-4.865c-1.32-0.959-0.642-3.047 0.99-3.047h8.277c0.73 0 1.376-0.47 1.602-1.164l2.558-7.872z"
    />
</svg>
<svg id="chat" width="47" height="32" viewBox="0 0 47 32" x="192" y="0">
<path
      fill="#674d40"
      d="M35.983 14.139c0-8.541-9.003-14.139-17.992-14.139-9.024 0-17.992 5.625-17.992 14.139 0 3.221 1.411 6.371 3.973 8.87 0.098 0.096 0.136 0.241 0.098 0.379-0.805 2.948-2.711 5.611-3.493 6.619-0.243 0.314-0.283 0.728-0.104 1.082 0.175 0.346 0.521 0.559 0.907 0.559 0.009 0 0.017-0 0.026-0 3.827-0.096 8.262-1.176 11.004-3.871 0.096-0.094 0.233-0.131 0.368-0.099 1.685 0.399 3.438 0.602 5.212 0.602 9.022-0 17.992-5.623 17.992-14.14zM13.096 26.344c-0.596-0.142-1.211 0.029-1.645 0.456-2.742 2.696-7.219 3.309-9.339 3.445 0.968-1.336 2.542-3.791 3.28-6.495 0.169-0.618-0.009-1.277-0.463-1.72-2.328-2.271-3.559-4.999-3.559-7.889 0-7.041 7.456-12.769 16.622-12.769s16.622 5.728 16.622 12.769-7.456 12.769-16.622 12.769c-1.668 0-3.315-0.19-4.896-0.565z"
    />
<path
      fill="#674d40"
      d="M40.39 25.522c3.995-2.019 6.379-5.459 6.379-9.204 0-5.292-4.784-9.813-11.374-10.752-0.374-0.053-0.721 0.207-0.775 0.582s0.207 0.721 0.582 0.775c5.909 0.841 10.197 4.792 10.197 9.395 0 3.216-2.103 6.2-5.627 7.981-0.685 0.346-1.052 1.112-0.893 1.862 0.334 1.57 1.045 3.023 1.614 4.009-4.046-0.673-5.579-2.615-6.064-3.455-0.299-0.519-0.859-0.84-1.463-0.84-0.002 0-0.004 0-0.005 0l-0.050 0c-0.76 0-1.52-0.053-2.261-0.157-0.374-0.053-0.721 0.209-0.774 0.583s0.209 0.721 0.583 0.774c0.803 0.113 1.628 0.17 2.451 0.17l0.057-0c0.115 0 0.22 0.059 0.275 0.155 1.855 3.215 6.121 4.037 7.869 4.24 0.386 0.045 0.754-0.131 0.96-0.461s0.203-0.736-0.007-1.063c-0.527-0.82-1.466-2.461-1.844-4.24-0.030-0.142 0.040-0.288 0.17-0.353z"
    />
<path
      fill="#674d40"
      d="M7.331 11.689c-1.309 0-2.374 1.065-2.374 2.374s1.065 2.374 2.374 2.374c1.309 0 2.374-1.065 2.374-2.374s-1.065-2.374-2.374-2.374zM7.331 15.067c-0.554 0-1.004-0.45-1.004-1.004s0.451-1.004 1.004-1.004c0.554 0 1.004 0.451 1.004 1.004s-0.45 1.004-1.004 1.004z"
    />
<path
      fill="#674d40"
      d="M14.105 11.689c-1.309 0-2.374 1.065-2.374 2.374s1.065 2.374 2.374 2.374c1.309 0 2.374-1.065 2.374-2.374s-1.065-2.374-2.374-2.374zM14.105 15.067c-0.554 0-1.004-0.45-1.004-1.004s0.45-1.004 1.004-1.004c0.554 0 1.004 0.451 1.004 1.004s-0.45 1.004-1.004 1.004z"
    />
<path
      fill="#674d40"
      d="M20.878 11.689c-1.309 0-2.374 1.065-2.374 2.374s1.065 2.374 2.374 2.374c1.309 0 2.374-1.065 2.374-2.374s-1.065-2.374-2.374-2.374zM20.878 15.067c-0.554 0-1.004-0.45-1.004-1.004s0.451-1.004 1.004-1.004c0.554 0 1.004 0.451 1.004 1.004s-0.45 1.004-1.004 1.004z"
    />
<path
      fill="#674d40"
      d="M27.652 11.689c-1.309 0-2.374 1.065-2.374 2.374s1.065 2.374 2.374 2.374c1.309 0 2.374-1.065 2.374-2.374s-1.065-2.374-2.374-2.374zM27.652 15.067c-0.554 0-1.004-0.45-1.004-1.004s0.45-1.004 1.004-1.004c0.554 0 1.004 0.451 1.004 1.004s-0.451 1.004-1.004 1.004z"
    />
</svg>
<svg id="clock" width="32" height="32" viewBox="0 0 32 32" x="288" y="0">
<path
      fill="#674d40"
      d="M16 0c-8.822 0-16 7.178-16 16s7.178 16 16 16c8.822 0 16-7.178 16-16s-7.178-16-16-16zM16 30.933c-8.234 0-14.933-6.699-14.933-14.933s6.699-14.933 14.933-14.933c8.234 0 14.933 6.699 14.933 14.933s-6.699 14.933-14.933 14.933z"
    />
<path
      fill="#674d40"
      d="M16.534 13.878v-5.409c0-0.295-0.239-0.533-0.533-0.533s-0.533 0.238-0.533 0.533v5.409c-0.746 0.194-1.33 0.778-1.524 1.524h-3.809c-0.294 0-0.533 0.238-0.533 0.533s0.239 0.533 0.533 0.533h3.809c0.238 0.917 1.067 1.6 2.058 1.6 1.177 0 2.133-0.957 2.133-2.133 0-0.991-0.683-1.819-1.6-2.058zM16 17.002c-0.588 0-1.067-0.478-1.067-1.067s0.478-1.067 1.067-1.067c0.588 0 1.067 0.478 1.067 1.067s-0.478 1.067-1.067 1.067z"
    />
<path
      fill="#674d40"
      d="M16 5.269c0.294 0 0.533-0.238 0.533-0.533v-0.533c0-0.295-0.239-0.533-0.533-0.533s-0.533 0.238-0.533 0.533v0.533c0 0.295 0.239 0.533 0.533 0.533z"
    />
<path
      fill="#674d40"
      d="M16 26.602c-0.294 0-0.533 0.238-0.533 0.533v0.533c0 0.295 0.239 0.533 0.533 0.533s0.533-0.238 0.533-0.533v-0.533c0-0.295-0.239-0.533-0.533-0.533z"
    />
<path
      fill="#674d40"
      d="M27.734 15.402h-0.533c-0.294 0-0.533 0.238-0.533 0.533s0.239 0.533 0.533 0.533h0.533c0.294 0 0.533-0.238 0.533-0.533s-0.239-0.533-0.533-0.533z"
    />
<path
      fill="#674d40"
      d="M4.8 15.402h-0.533c-0.294 0-0.533 0.238-0.533 0.533s0.239 0.533 0.533 0.533h0.533c0.294 0 0.533-0.238 0.533-0.533s-0.239-0.533-0.533-0.533z"
    />
<path
      fill="#674d40"
      d="M23.919 7.261l-0.377 0.377c-0.209 0.209-0.209 0.546 0 0.754 0.104 0.104 0.241 0.156 0.377 0.156s0.273-0.052 0.377-0.156l0.377-0.377c0.209-0.209 0.209-0.546 0-0.754s-0.546-0.208-0.754 0z"
    />
<path
      fill="#674d40"
      d="M7.704 23.478l-0.377 0.377c-0.209 0.209-0.209 0.546 0 0.754 0.104 0.104 0.241 0.156 0.377 0.156s0.273-0.052 0.377-0.156l0.377-0.377c0.209-0.209 0.209-0.546 0-0.754s-0.546-0.208-0.754 0z"
    />
<path
      fill="#674d40"
      d="M24.296 23.478c-0.209-0.209-0.546-0.209-0.754 0s-0.209 0.546 0 0.754l0.377 0.377c0.104 0.104 0.241 0.156 0.377 0.156s0.273-0.052 0.377-0.156c0.209-0.209 0.209-0.546 0-0.754l-0.377-0.377z"
    />
<path
      fill="#674d40"
      d="M8.081 7.261c-0.209-0.209-0.546-0.209-0.754 0s-0.209 0.546 0 0.754l0.377 0.377c0.104 0.104 0.241 0.156 0.377 0.156s0.273-0.052 0.377-0.156c0.209-0.209 0.209-0.546 0-0.754l-0.377-0.377z"
    />
</svg>
<svg id="people" width="34" height="32" viewBox="0 0 34 32" x="336" y="0">
<path
      fill="#674d40"
      d="M11.544 0c-3.584 0-6.503 2.919-6.503 6.503s2.919 6.503 6.503 6.503c3.584 0 6.503-2.919 6.503-6.503s-2.919-6.503-6.503-6.503zM11.544 11.915c-2.992 0-5.419-2.434-5.419-5.419s2.434-5.419 5.419-5.419c2.992 0 5.419 2.434 5.419 5.419s-2.434 5.419-5.419 5.419z"
    />
<path
      fill="#674d40"
      d="M24.861 2.7c-2.693 0-4.88 2.188-4.88 4.88s2.188 4.88 4.88 4.88c2.693 0 4.88-2.188 4.88-4.88s-2.188-4.88-4.88-4.88zM24.861 11.383c-2.094 0-3.797-1.702-3.797-3.797s1.702-3.797 3.797-3.797c2.094 0 3.797 1.702 3.797 3.797s-1.702 3.797-3.797 3.797z"
    />
<path
      fill="#674d40"
      d="M33.592 19.615c-0.492-2.965-2.334-5.466-5.472-6.775 0 0-1.39 1.051-3.258 1.017-2.041-0.040-3.258-1.017-3.258-1.017s-1.516 0.565-2.739 1.742c-1.13-1.004-3.039-1.822-3.039-1.822s-1.749 1.33-4.289 1.31c-2.666-0.020-4.275-1.31-4.275-1.31s-5.765 1.981-6.982 8.704c0 0-1.303 3.564 1.715 8.89h19.103c0 0 1.356-2.361 1.596-3.797h9.502c2.334-3.537 1.396-6.942 1.396-6.942zM20.427 29.269h-17.76c-2.321-4.408-1.317-7.627-1.317-7.627 0.565-3.371 2.733-6.217 5.831-7.66 2.66 1.563 6.071 1.563 8.73 0 3.098 1.443 5.266 4.289 5.831 7.66-0.007 0 0.957 3.963-1.317 7.627zM31.564 25.473h-8.651c0.332-1.915-0.106-4.009-0.106-4.009-0.392-2.367-1.509-4.501-3.145-6.15 0.559-0.505 1.177-0.924 1.855-1.25 2.041 1.17 4.641 1.17 6.682 0 2.294 1.097 3.903 3.218 4.322 5.732 0 0 0.791 2.686-0.957 5.678z"
    />
</svg>
<svg id="chef-hat" width="34" height="32" viewBox="0 0 34 32" x="384" y="0">
<path
      fill="#674d40"
      d="M24.436 8.388c-0.128 0-0.251-0.051-0.341-0.141s-0.141-0.213-0.141-0.341c-0.037-1.849-0.798-3.609-2.119-4.903s-3.096-2.019-4.945-2.019c-1.849 0-3.624 0.725-4.945 2.019s-2.081 3.055-2.119 4.903c0 0.128-0.051 0.251-0.141 0.341s-0.213 0.141-0.341 0.141c-0.128 0-0.251-0.051-0.341-0.141s-0.141-0.213-0.141-0.341c0.033-2.108 0.893-4.118 2.395-5.597s3.526-2.308 5.634-2.308c2.108 0 4.132 0.829 5.634 2.308s2.363 3.489 2.395 5.597c0 0.128-0.051 0.251-0.141 0.341s-0.213 0.141-0.341 0.141z"
    />
<path
      fill="#674d40"
      d="M25.844 19.308c-0.128 0.001-0.251-0.049-0.342-0.139s-0.143-0.212-0.143-0.34c-0.001-0.128 0.049-0.251 0.139-0.342s0.212-0.143 0.34-0.143c1.838-0.011 3.598-0.742 4.902-2.037s2.048-3.050 2.072-4.887c-0.018-1.856-0.772-3.628-2.095-4.929s-3.109-2.024-4.964-2.010c-0.712-0.001-1.421 0.104-2.102 0.312-0.122 0.035-0.252 0.021-0.364-0.039s-0.195-0.162-0.232-0.283-0.025-0.252 0.033-0.364c0.059-0.112 0.159-0.197 0.28-0.236 0.773-0.236 1.577-0.355 2.385-0.354 2.112-0.014 4.142 0.811 5.647 2.293s2.36 3.5 2.378 5.611c-0.025 2.091-0.869 4.089-2.351 5.565s-3.484 2.31-5.576 2.325h-0.006z"
    />
<path
      fill="#674d40"
      d="M7.933 19.308h-0.006c-2.091-0.015-4.093-0.85-5.576-2.325s-2.327-3.473-2.351-5.565c0.018-2.111 0.874-4.129 2.378-5.611s3.535-2.306 5.647-2.293c0.808-0.001 1.612 0.118 2.385 0.354 0.061 0.018 0.119 0.048 0.168 0.088s0.091 0.090 0.121 0.146c0.030 0.056 0.049 0.118 0.056 0.182s-0 0.128-0.019 0.189c-0.019 0.061-0.049 0.118-0.090 0.167s-0.091 0.090-0.148 0.119c-0.057 0.030-0.119 0.048-0.182 0.053s-0.128-0.002-0.189-0.022c-0.681-0.208-1.39-0.313-2.102-0.312-1.856-0.014-3.641 0.709-4.964 2.010s-2.077 3.073-2.095 4.929c0.024 1.838 0.768 3.592 2.072 4.887s3.064 2.026 4.902 2.037c0.063 0 0.126 0.013 0.184 0.038s0.111 0.061 0.156 0.106c0.045 0.045 0.080 0.099 0.104 0.157s0.036 0.122 0.036 0.185c-0 0.063-0.013 0.126-0.038 0.185s-0.060 0.111-0.106 0.156c-0.045 0.044-0.098 0.080-0.157 0.104s-0.122 0.036-0.185 0.036z"
    />
<path
      fill="#674d40"
      d="M25.845 31.312h-17.912c-0.128 0-0.251-0.051-0.341-0.141s-0.141-0.213-0.141-0.341v-12.004c0-0.128 0.051-0.251 0.141-0.341s0.213-0.141 0.341-0.141c0.128 0 0.251 0.051 0.341 0.141s0.141 0.213 0.141 0.341v11.521h16.947v-11.521c0-0.128 0.051-0.251 0.141-0.341s0.213-0.141 0.341-0.141c0.128 0 0.251 0.051 0.341 0.141s0.141 0.213 0.141 0.341v12.004c0 0.128-0.051 0.251-0.141 0.341s-0.213 0.141-0.341 0.141z"
    />
<path
      fill="#674d40"
      d="M29.203 26.636h-17.912c-0.128 0-0.251-0.051-0.341-0.141s-0.141-0.213-0.141-0.341c0-0.128 0.051-0.251 0.141-0.341s0.213-0.141 0.341-0.141h17.912c0.128 0 0.251 0.051 0.341 0.141s0.141 0.213 0.141 0.341c0 0.128-0.051 0.251-0.141 0.341s-0.213 0.141-0.341 0.141z"
    />
</svg>
<svg id="facebook" width="16" height="32" viewBox="0 0 16 32" x="432" y="0">
<path
      d="M14.512 0.007l-3.617-0.007c-4.064 0-6.69 3.091-6.69 7.875v3.631h-3.637c-0.314 0-0.569 0.292-0.569 0.653v5.261c0 0.361 0.255 0.652 0.569 0.652h3.637v13.275c0 0.36 0.254 0.652 0.569 0.652h4.745c0.314 0 0.569-0.292 0.569-0.652v-13.275h4.252c0.314 0 0.569-0.292 0.569-0.652l0.002-5.261c0-0.173-0.060-0.339-0.167-0.461s-0.252-0.191-0.402-0.191h-4.254v-3.078c0-1.479 0.307-2.23 1.987-2.23l2.437-0.001c0.314 0 0.568-0.292 0.568-0.652v-4.885c0-0.36-0.254-0.652-0.568-0.652z"
    />
</svg>
<svg id="instagram" width="32" height="32" viewBox="0 0 32 32" x="480" y="0">
<path
      d="M16.316 32c-0.106 0-0.212 0-0.319-0-2.508 0.006-4.826-0.058-7.080-0.195-2.066-0.126-3.953-0.84-5.455-2.065-1.45-1.182-2.44-2.781-2.942-4.75-0.438-1.715-0.461-3.398-0.483-5.026-0.016-1.168-0.033-2.553-0.036-3.96 0.003-1.414 0.020-2.798 0.036-3.966 0.022-1.628 0.045-3.311 0.483-5.026 0.503-1.97 1.493-3.568 2.942-4.75 1.503-1.225 3.389-1.939 5.456-2.065 2.254-0.137 4.572-0.201 7.086-0.195 2.509-0.005 4.826 0.058 7.080 0.195 2.066 0.126 3.953 0.84 5.455 2.065 1.45 1.182 2.44 2.781 2.943 4.75 0.437 1.715 0.461 3.398 0.483 5.026 0.016 1.168 0.033 2.553 0.036 3.96v0.006c-0.003 1.408-0.020 2.792-0.036 3.96-0.022 1.628-0.045 3.311-0.483 5.026-0.503 1.97-1.493 3.568-2.943 4.75-1.502 1.225-3.389 1.939-5.455 2.065-2.159 0.131-4.376 0.195-6.768 0.195zM15.997 29.5c2.468 0.006 4.733-0.056 6.934-0.19 1.563-0.095 2.917-0.602 4.027-1.507 1.026-0.837 1.732-1.991 2.1-3.431 0.364-1.428 0.385-2.96 0.406-4.442 0.016-1.16 0.032-2.535 0.036-3.929-0.004-1.394-0.020-2.769-0.036-3.929-0.020-1.482-0.041-3.015-0.406-4.443-0.367-1.44-1.074-2.594-2.1-3.431-1.11-0.905-2.465-1.412-4.027-1.507-2.201-0.134-4.467-0.196-6.928-0.19-2.467-0.006-4.733 0.056-6.934 0.19-1.563 0.095-2.917 0.602-4.027 1.507-1.026 0.837-1.732 1.991-2.1 3.431-0.364 1.428-0.385 2.96-0.406 4.443-0.016 1.161-0.032 2.537-0.036 3.932 0.003 1.389 0.020 2.765 0.036 3.926 0.020 1.482 0.041 3.015 0.406 4.442 0.367 1.44 1.074 2.594 2.1 3.431 1.11 0.905 2.465 1.412 4.027 1.507 2.201 0.134 4.467 0.197 6.928 0.191zM15.937 23.812c-4.308 0-7.813-3.505-7.813-7.812s3.505-7.813 7.813-7.813c4.308 0 7.813 3.505 7.813 7.813s-3.505 7.812-7.813 7.812zM15.937 10.687c-2.929 0-5.313 2.383-5.313 5.313s2.383 5.312 5.313 5.312c2.93 0 5.313-2.383 5.313-5.312s-2.383-5.313-5.313-5.313zM24.625 5.687c-1.035 0-1.875 0.839-1.875 1.875s0.84 1.875 1.875 1.875c1.036 0 1.875-0.839 1.875-1.875s-0.839-1.875-1.875-1.875z"
    />
</svg>
<svg id="twitter" width="34" height="32" viewBox="0 0 34 32" x="528" y="0">
<path
      d="M34.133 3.67c-1.269 0.622-2.622 1.035-4.032 1.235 1.451-0.968 2.558-2.49 3.078-4.324-1.353 0.901-2.846 1.538-4.437 1.893-1.284-1.529-3.115-2.475-5.111-2.475-3.874 0-6.993 3.515-6.993 7.824 0 0.62 0.047 1.216 0.162 1.784-5.818-0.317-10.965-3.434-14.423-8.182-0.604 1.171-0.958 2.511-0.958 3.954 0 2.709 1.248 5.111 3.108 6.501-1.124-0.024-2.227-0.389-3.162-0.963 0 0.024 0 0.055 0 0.086 0 3.801 2.426 6.959 5.606 7.686-0.57 0.174-1.19 0.258-1.835 0.258-0.448 0-0.9-0.029-1.325-0.134 0.907 3.098 3.479 5.375 6.539 5.449-2.381 2.082-5.404 3.336-8.676 3.336-0.574 0-1.124-0.029-1.675-0.107 3.1 2.235 6.773 3.51 10.735 3.51 12.877 0 19.917-11.924 19.917-22.259 0-0.346-0.011-0.68-0.026-1.011 1.389-1.102 2.556-2.478 3.507-4.061z"
    />
</svg>
<svg id="menu" width="60" height="32" viewBox="0 0 60 32" x="576" y="0">
<path
      d="M2 0h56c1.105 0 2 0.895 2 2s-0.895 2-2 2h-56c-1.105 0-2-0.895-2-2s0.895-2 2-2z"
    />
<path
      d="M2 14h56c1.105 0 2 0.895 2 2s-0.895 2-2 2h-56c-1.105 0-2-0.895-2-2s0.895-2 2-2z"
    />
<path
      d="M2 28h56c1.105 0 2 0.895 2 2s-0.895 2-2 2h-56c-1.105 0-2-0.895-2-2s0.895-2 2-2z"
    />
</svg>
<svg id="close" width="32" height="32" viewBox="0 0 32 32" x="672" y="0">
<path
      d="M30.355 32c0.422 0 0.843-0.16 1.163-0.483 0.643-0.643 0.643-1.685 0-2.328l-28.707-28.707c-0.643-0.643-1.685-0.643-2.328 0s-0.643 1.685 0 2.329l28.707 28.706c0.323 0.321 0.744 0.483 1.165 0.483z"
    />
<path
      d="M1.645 32c0.422 0 0.843-0.16 1.163-0.483l28.709-28.706c0.643-0.643 0.643-1.686 0-2.329s-1.685-0.643-2.329 0l-28.707 28.707c-0.643 0.643-0.643 1.685 0 2.328 0.323 0.321 0.744 0.483 1.163 0.483z"
    />
</svg>
</svg>
