<?xml version="1.0" standalone="no"?>
<!DOCTYPE svg PUBLIC "-//W3C//DTD SVG 20010904//EN"
 "http://www.w3.org/TR/2001/REC-SVG-20010904/DTD/svg10.dtd">
<svg version="1.0" xmlns="http://www.w3.org/2000/svg"
 width="270.000000pt" height="270.000000pt" viewBox="0 0 270.000000 270.000000"
 preserveAspectRatio="xMidYMid meet">
<metadata>
Created by potrace 1.14, written by Peter Selinger 2001-2017
</metadata>
<g transform="translate(0.000000,270.000000) scale(0.100000,-0.100000)"
fill="#000000" stroke="none">
<path d="M1203 2619 c-11 -4 -45 -10 -74 -13 -106 -12 -124 -16 -127 -26 -2
-6 -8 -8 -13 -4 -21 12 -204 -51 -284 -99 -204 -122 -320 -223 -427 -372 -32
-44 -57 -84 -57 -89 0 -5 -4 -12 -9 -15 -24 -15 -104 -245 -128 -366 -2 -11
-6 -31 -9 -45 -19 -86 -25 -153 -26 -297 -1 -88 1 -165 4 -170 3 -5 8 -27 11
-50 5 -32 3 -42 -9 -47 -9 -3 -13 -10 -10 -16 4 -6 10 -8 15 -5 11 7 20 -8 26
-42 12 -66 79 -234 96 -241 4 -2 8 -10 8 -18 0 -8 4 -14 10 -14 5 0 7 -7 4
-15 -4 -8 1 -17 10 -21 9 -3 26 -24 38 -45 12 -21 26 -39 32 -39 5 0 6 -3 3
-7 -7 -6 49 -62 118 -118 21 -16 53 -45 72 -62 18 -18 37 -33 41 -33 4 0 13
-9 20 -20 7 -11 19 -20 26 -20 8 0 16 -3 18 -8 2 -4 32 -28 68 -54 36 -26 71
-53 79 -59 7 -7 30 -14 50 -16 20 -2 42 -11 49 -21 7 -9 18 -17 25 -17 22 -1
62 -17 80 -33 9 -8 17 -12 17 -8 0 3 12 0 27 -8 16 -8 42 -15 58 -17 17 -2 32
-7 35 -10 5 -6 139 -21 170 -19 8 0 56 2 105 4 50 2 93 4 98 6 4 1 11 3 16 4
5 0 12 4 16 8 4 4 13 4 21 1 8 -3 14 -1 14 3 0 5 17 9 38 9 46 1 143 39 196
77 21 15 46 28 56 28 9 0 20 4 25 9 6 5 19 11 30 13 11 1 22 6 25 9 3 3 28 19
55 34 28 16 53 33 56 38 3 4 12 9 20 11 18 2 60 30 122 78 27 21 54 38 60 38
17 1 57 36 57 50 0 6 4 9 9 5 5 -3 30 22 55 54 26 33 54 68 64 77 9 10 21 25
27 34 40 66 58 90 66 90 5 0 9 8 9 18 0 10 7 27 15 38 8 12 11 24 8 28 -3 3
-1 6 5 6 7 0 12 9 12 20 0 11 4 20 9 20 10 0 35 78 46 140 3 19 10 39 16 45 5
5 9 17 9 27 0 9 9 22 20 28 11 6 18 15 16 19 -3 4 -1 25 5 45 6 21 12 68 13
105 2 37 8 76 13 87 5 10 8 33 6 49 -8 75 -8 121 -2 135 4 9 0 38 -10 65 -9
28 -16 57 -16 65 1 8 -3 21 -9 29 -6 7 -11 19 -11 25 -1 29 -18 96 -23 96 -7
0 -15 17 -42 88 -7 17 -16 32 -21 32 -5 0 -9 6 -9 13 0 7 -9 23 -20 35 -11 12
-20 28 -20 37 0 8 -4 15 -8 15 -5 0 -15 15 -24 33 -14 29 -60 84 -128 156 -14
15 -45 42 -70 61 -25 19 -51 41 -58 48 -8 7 -28 20 -45 28 -18 9 -52 31 -77
49 -66 46 -214 116 -295 139 -74 21 -94 26 -115 30 -14 3 -47 12 -75 20 -95
26 -346 42 -392 25z m276 -1098 c51 -28 94 -82 98 -125 3 -22 11 -54 18 -71
11 -25 13 -64 6 -122 0 -6 -10 -10 -22 -8 -15 3 -19 0 -17 -13 3 -9 10 -16 16
-15 13 3 16 -35 4 -53 -12 -18 -95 -62 -139 -73 -35 -10 -51 -8 -101 8 -87 30
-238 114 -234 132 2 8 5 38 7 66 1 29 7 59 14 66 6 8 9 16 6 19 -10 9 50 86
107 137 46 42 63 52 97 54 23 1 41 5 41 8 0 11 74 3 99 -10z"/>
</g>
</svg>
