<svg viewBox="0 0 47.5 47.5" style="enable-background:new 0 0 47.5 47.5" xml:space="preserve" xmlns="http://www.w3.org/2000/svg" width="19" height="19">
  <defs>
    <clipPath clipPathUnits="userSpaceOnUse" id="a">
      <path d="M0 38h38V0H0v38Z"/>
    </clipPath>
  </defs>
  <g clip-path="url(#a)" transform="matrix(1.25 0 0 -1.25 0 47.5)">
    <path d="M0 0c-1.046-6.271-7.722-10.451-17.245-10.451S-33.443-6.271-34.488 0c-.247 1.479.156 8.12 1.054 9.406C-30.875 13.069-29.96-.959-17.245-.959c13.848 0 13.641 14.028 16.199 10.365C-.147 8.12.246 1.479 0 0" style="fill:#ffac33;fill-opacity:1;fill-rule:nonzero;stroke:none" transform="translate(36.337 13.451)"/>
    <path d="M0 0c-3.174 0-5.748.702-5.748 1.568 0 .866 2.574 1.567 5.748 1.567 3.173 0 5.748-.701 5.748-1.567S3.173 0 0 0m0 13.375c-9.331 0-16.895-4.584-16.895-10.24C-16.895-2.52-9.331-7.104 0-7.104c9.33 0 16.895 4.584 16.895 10.239 0 5.656-7.565 10.24-16.895 10.24" style="fill:#8a4b38;fill-opacity:1;fill-rule:nonzero;stroke:none" transform="translate(19.092 17.63)"/>
    <path d="M0 0c-.653-1.045-.92-5.494.479-7.577 2.134-3.179 3.178-1.567 4.746-2.047 2.335-.714 2.508-2.559 4.355-3.483 2.09-1.045 3.305-.741 6.27 0 4.181 1.045 6.837-1.088 9.405 0 2.106.893 3.311 4.137 4.486 4.528 3.728 1.243 4.515 7.124 1.741 9.537-.87-1.829-5.137-8.404-7.88-8.709-2.745-.305-10.974-1-14.457.784-3.484 1.785-7.011 4.006-7.447 4.615C1.263-1.742 0 0 0 0" style="fill:#8a4b38;fill-opacity:1;fill-rule:nonzero;stroke:none" transform="translate(2.72 22.377)"/>
    <path d="M0 0c-3.752 0-6.793-1.228-6.793-2.743 0-.59.463-1.133 1.245-1.58-.126.13-.2.264-.2.404 0 .866 2.574 1.567 5.748 1.567 3.173 0 5.748-.701 5.748-1.567 0-.14-.074-.274-.201-.404.783.447 1.246.99 1.246 1.58C6.793-1.228 3.751 0 0 0" style="fill:#f4900c;fill-opacity:1;fill-rule:nonzero;stroke:none" transform="translate(19.092 23.118)"/>
    <path d="M0 0a1.044 1.044 0 0 0-.489 1.969l2.308 1.22a1.044 1.044 0 1 0 .976-1.847L.487.122A1.028 1.028 0 0 0 0 0" style="fill:#f4abba;fill-opacity:1;fill-rule:nonzero;stroke:none" transform="translate(5.42 18.85)"/>
    <path d="M0 0c-.41 0-.799.242-.966.646l-.74 1.786a1.045 1.045 0 1 0 1.931.798l.74-1.786A1.044 1.044 0 0 0 0 0" style="fill:#f4abba;fill-opacity:1;fill-rule:nonzero;stroke:none" transform="translate(17.307 11.056)"/>
    <path d="M0 0a1.043 1.043 0 0 0-.898 1.576L.233 3.492a1.044 1.044 0 1 0 1.799-1.063L.9.514A1.043 1.043 0 0 0 0 0" style="fill:#55acee;fill-opacity:1;fill-rule:nonzero;stroke:none" transform="translate(29.151 15.236)"/>
    <path d="M0 0c-.56 0-1.023.481-1.043 1.046-.02.576.431 1.079 1.007 1.1l1.218.052c.587.007 1.061-.427 1.081-1.004C2.283.618 1.832.099 1.256.078L.038 0H0Z" style="fill:#f4abba;fill-opacity:1;fill-rule:nonzero;stroke:none" transform="translate(30.893 23)"/>
    <path d="M0 0a1.047 1.047 0 0 0-.315 2.042l.826.261A1.045 1.045 0 0 0 1.142.31L.315.049A1.05 1.05 0 0 0 0 0" style="fill:#f4abba;fill-opacity:1;fill-rule:nonzero;stroke:none" transform="translate(20.792 27.123)"/>
    <path d="M0 0c-.157 0-.316.036-.466.11l-.784.392a1.046 1.046 0 1 0 .935 1.87l.783-.392A1.045 1.045 0 0 0 0 0" style="fill:#88c9f9;fill-opacity:1;fill-rule:nonzero;stroke:none" transform="translate(14.998 25.426)"/>
    <path d="M0 0a1.05 1.05 0 0 0-.465.109L-1.249.5a1.045 1.045 0 1 0 .932 1.871l.784-.391A1.046 1.046 0 0 0 0 0" style="fill:#88c9f9;fill-opacity:1;fill-rule:nonzero;stroke:none" transform="translate(24.1 12.146)"/>
    <path d="M0 0a1.045 1.045 0 0 0-.96 1.457l.392.914a1.044 1.044 0 1 0 1.921-.824L.961.633A1.046 1.046 0 0 0 0 0" style="fill:#55acee;fill-opacity:1;fill-rule:nonzero;stroke:none" transform="translate(10.426 14.452)"/>
    <path d="M0 0a1.045 1.045 0 0 0-.42 2.003l.696.305a1.043 1.043 0 0 0 1.376-.539A1.044 1.044 0 0 0 1.114.393L.418.088A1.036 1.036 0 0 0 0 0" style="fill:#55acee;fill-opacity:1;fill-rule:nonzero;stroke:none" transform="translate(26.018 24.337)"/>
    <path d="M0 0c-.078 0-.157.009-.235.027l-.566.13a1.045 1.045 0 0 0 .468 2.037l.566-.13A1.046 1.046 0 0 0 0 0" style="fill:#55acee;fill-opacity:1;fill-rule:nonzero;stroke:none" transform="translate(9.035 24.38)"/>
  </g>
</svg>