<svg xmlns="http://www.w3.org/2000/svg" viewBox="0 0 463.02 463.02" style="enable-background:new 0 0 463.02 463.02" xml:space="preserve" width="19px" height="19px">
  <path d="m119.4 290.916-24.9 16.2c-3.5 2.3-4.5 6.9-2.2 10.4 1.4 2.2 3.8 3.4 6.3 3.4 1.4 0 2.8-.4 4.1-1.2l24.9-16.2c3.5-2.3 4.5-6.9 2.2-10.4s-6.9-4.5-10.4-2.2zM179.5 359.116c-2.3-3.5-6.9-4.5-10.4-2.2s-4.5 6.9-2.2 10.4l16.2 24.9c1.4 2.2 3.8 3.4 6.3 3.4 1.4 0 2.8-.4 4.1-1.2 3.5-2.3 4.5-6.9 2.2-10.4l-16.2-24.9zM310.6 374.516c-3.3-2.4-8-1.6-10.4 1.8l-17.4 24.9c-2.4 3.3-1.6 8 1.8 10.4 1.3 1 2.8 1.4 4.3 1.4 2.4 0 4.7-1.1 6.1-3.2l17.4-24.9c2.4-3.3 1.6-8-1.8-10.4zM333.7 290.216l-18.9-6.6c9.9-15.6 15.2-33.5 15.2-52.3 0-54.9-44.1-99.6-98.3-99.6-26.7 0-51.7 10.3-70.5 29.1-18.8 18.8-29.1 43.8-29.1 70.5 0 54.2 44.7 98.3 99.6 98.3 26.1 0 50.7-10.3 69.4-29 1.5-1.5 2.9-3 4.3-4.6l23.4 8.2c.8.3 1.7.4 2.5.4 3.1 0 6-1.9 7.1-5 1.3-3.8-.8-8.1-4.7-9.4zm-102 24.4c-46.6 0-84.6-37.4-84.6-83.3 0-46.6 37.9-84.6 84.6-84.6 46 0 83.3 37.9 83.3 84.6 0 46-37.3 83.3-83.3 83.3zM410 257.416l-24.9-16.2c-3.5-2.3-8.1-1.3-10.4 2.2s-1.3 8.1 2.2 10.4l24.9 16.2c1.3.8 2.7 1.2 4.1 1.2 2.5 0 4.9-1.2 6.3-3.4 2.3-3.5 1.3-8.1-2.2-10.4zM116.4 190.416c-4-.9-8 1.7-8.9 5.7l-7.5 33.6c-.9 4 1.7 8 5.7 8.9.5.1 1.1.2 1.6.2 3.4 0 6.5-2.4 7.3-5.9l7.5-33.6c.9-4-1.7-8-5.7-8.9z"/>
  <path d="m160.2 89.016 15.5 22.2c1.5 2.1 3.8 3.2 6.2 3.2 1.5 0 3-.4 4.3-1.4 3.4-2.4 4.2-7.1 1.8-10.4l-13.8-19.8c17.8-6.9 37.2-10.7 57.5-10.7 4.1 0 7.5-3.4 7.5-7.5s-3.4-7.6-7.5-7.6c-96.1 0-174.3 78.2-174.3 174.3 0 5.2-2.7 10.5-7.1 14.1-4.1 3.3-10.1 4.2-15.3 2.5-3.9-1.3-8.2.8-9.5 4.7s.8 8.2 4.7 9.5c3.3 1.1 6.7 1.6 10.1 1.6 7 0 13.9-2.3 19.3-6.6 8-6.4 12.8-16 12.8-25.8 0-62.1 35.8-116.1 87.8-142.3z"/>
  <path d="M460.6 204.115c-.5-3.7-3.7-6.4-7.4-6.4-1.6 0-3 .4-4.2.8-.6.2-1.6.5-2 .5-28.1 0-51-22.9-51-51 0-6.2 1-11.6 3.3-18.8 1.3-3.8-.7-7.9-4.4-9.4-14.9-5.7-26.2-18.3-30.3-33.5-.6-2.2-2.1-4-4.2-4.9-2.1-.9-4.4-.9-6.4.1-1 .5-4.5.5-6.6.5-17.6 0-33.8-8.9-43.5-23.9-1.7-2.7-5-4-8.1-3.2-5.9 1.5-10.9 2.3-14.4 2.3-28.1 0-51-22.3-51-49.7 0-2-.8-4-2.3-5.4s-3.4-2.2-5.5-2.1c-60.2 1.9-116.4 26.9-158.1 70.4-41.6 43.4-64.5 100.6-64.5 161.1 0 61.7 24 119.8 67.5 163.5 43.7 43.9 101.9 68 164 68 61.6 0 119.7-24.1 163.5-68 43.8-43.8 68-101.9 68-163.5.2-9.5-1.1-18.6-2.4-27.4zM231.7 447.816c-119.4 0-216.5-97.1-216.5-216.5 0-115.3 87.6-208.9 200.8-216.2 4 32 31.8 56.9 65.5 56.9 3.6 0 7.9-.5 12.9-1.6 2.4 3.2 5.1 6.1 8 8.8l-24.3 12.1c-3.7 1.9-5.2 6.4-3.4 10.1 1.3 2.6 4 4.1 6.7 4.1 1.1 0 2.3-.3 3.3-.8l31.4-15.7c9.5 5 20.1 7.8 31.2 7.8 1.6 0 3.3 0 4.9-.1 5.7 14.7 16.7 26.8 30.8 34.1-1.5 5.9-2.2 11.2-2.2 17 0 36.3 29.5 65.9 65.9 66 .8 5.9 1.3 11.7 1.3 17.4.2 119.5-96.9 216.6-216.3 216.6z"/>
</svg>
